<?xml version="1.0" encoding="utf-8"?>
<!-- Generator: Adobe Illustrator 22.1.0, SVG Export Plug-In . SVG Version: 6.00 Build 0)  -->
<svg version="1.1" id="Layer_1" xmlns="http://www.w3.org/2000/svg" xmlns:xlink="http://www.w3.org/1999/xlink" x="0px" y="0px"
	 viewBox="0 0 176 56" enable-background="new 0 0 176 56" xml:space="preserve">
<g>
	<path fill="#00B5E2" d="M72,0H4C1.8,0,0,1.8,0,4v48c0,2.2,1.8,4,4,4h68c2.2,0,4-1.8,4-4V4C76,1.8,74.2,0,72,0z M38,42
		c-7.7,0-14-6.3-14-14c0-7.7,6.3-14,14-14s14,6.3,14,14C52,35.7,45.7,42,38,42z M34,35l12-7l-12-7V35z M88,25h-6v6h6v4l8-7l-8-7V25z
		 M172,0h-68c-2.2,0-4,1.8-4,4v48c0,2.2,1.8,4,4,4h68c2.2,0,4-1.8,4-4V4C176,1.8,174.2,0,172,0z M151,39h-26V17h26V39z M138,32l7-7
		l4,3.7V19h-22v17l7-8L138,32z M130,24c0-1.1,0.9-2,2-2s2,0.9,2,2c0,1.1-0.9,2-2,2S130,25.1,130,24z"/>
</g>
</svg>
